<?xml version="1.0" encoding="utf-8"?>
<!-- Generator: Adobe Illustrator 25.0.0, SVG Export Plug-In . SVG Version: 6.00 Build 0)  -->
<svg version="1.1" id="Layer_1" xmlns="http://www.w3.org/2000/svg" xmlns:xlink="http://www.w3.org/1999/xlink" x="0px" y="0px"
	 viewBox="0 0 57 64" style="enable-background:new 0 0 57 64;" xml:space="preserve">
<style type="text/css">
	.st0{fill-rule:evenodd;clip-rule:evenodd;fill:#472F89;fill-opacity:0.5;}
</style>
<g id="Group_1">
	<path id="Shape" class="st0" d="M0,0l5.1,57.6l23,6.4l23.1-6.4L56.4,0H0z M46.9,54l-18.7,5.1v-7.3l-0.1,0l-14.5-4l-1-11.1h7.1
		l0.5,5.6l7.9,2.1l0.1,0V33l-15.9,0L11.8,26l0,0l16.5-7.1l0-0.5H11.1l-0.6-7.1h17.7h0.1l0-6.6h23L46.9,54z"/>
	<path id="Shape_2" class="st0" d="M29.4,18.4l-1.1,0.5V26l0,0V33h8.6l-0.8,9.2l-7.8,2.2v7.4l14.4-4L44.6,26H28.3l17-7.6l0.6-7.1
		H28.3v7v0.1H29.4z"/>
</g>
</svg>
