<svg xmlns="http://www.w3.org/2000/svg" viewBox="0 0 750 500"><defs><style>.cls-1{isolation:isolate;}.cls-13,.cls-2{fill:none;}.cls-14,.cls-15,.cls-2{stroke:#d8dbde;}.cls-2{stroke-linecap:round;stroke-linejoin:round;stroke-width:2px;}.cls-3{fill:#d8dbde;}.cls-4{fill:#0e0f2d;}.cls-16,.cls-5{mix-blend-mode:multiply;}.cls-16,.cls-6{fill:#e5e5e5;}.cls-7{fill:#452a80;}.cls-8{fill:#719bff;}.cls-10,.cls-14,.cls-15,.cls-9{fill:#fff;}.cls-10{font-size:48px;font-family:FranklinGothic-Demi, Franklin Gothic Demi;font-weight:300;}.cls-11{letter-spacing:-0.01em;}.cls-12{letter-spacing:0.01em;}.cls-13{stroke:#fff;stroke-width:0.97px;}.cls-13,.cls-14,.cls-15{stroke-miterlimit:10;}.cls-14{stroke-width:2.88px;}.cls-15{stroke-width:2px;}</style></defs><g class="cls-1"><g id="OBJECTS"><line class="cls-2" x1="47.03" y1="393.43" x2="699.69" y2="393.43"/><path class="cls-3" d="M565.15,245.27h-9.72a3.3,3.3,0,0,1-3.08-2.08c-.13-.33-.27-.65-.4-1a3.31,3.31,0,0,1,.72-3.63l7.16-7.16a3.36,3.36,0,0,0,0-4.73L546.13,213a3.34,3.34,0,0,0-4.73,0l-7,7a3.4,3.4,0,0,1-3.76.67l-.59-.25a3.39,3.39,0,0,1-2.16-3.12V207a3.35,3.35,0,0,0-3.35-3.34H505.12a3.35,3.35,0,0,0-3.34,3.34v10.36a3.4,3.4,0,0,1-2.16,3.12l-.33.14a3.4,3.4,0,0,1-3.74-.68l-7.61-7.61a3.36,3.36,0,0,0-4.73,0L469.51,226a3.34,3.34,0,0,0,0,4.73l7.56,7.57a3.4,3.4,0,0,1,.68,3.75l0,.1a3.4,3.4,0,0,1-3.12,2.13H463.5a3.35,3.35,0,0,0-3.35,3.35V267a3.35,3.35,0,0,0,3.35,3.35h10.76a3.42,3.42,0,0,1,3.15,2.19v.05a3.39,3.39,0,0,1-.7,3.7l-7.9,7.9a3.36,3.36,0,0,0,0,4.73l13.7,13.7a3.35,3.35,0,0,0,4.74,0l7.46-7.47a3.4,3.4,0,0,1,3.8-.65l.19.08a3.4,3.4,0,0,1,2.1,3.1v10.95a3.34,3.34,0,0,0,3.34,3.35h19.38a3.35,3.35,0,0,0,3.34-3.35V298.5a3.32,3.32,0,0,1,2.11-3.1l.68-.27a3.31,3.31,0,0,1,3.6.74l7.45,7.45a3.36,3.36,0,0,0,4.73,0l13.7-13.7a3.35,3.35,0,0,0,0-4.74l-6.94-6.94a3.31,3.31,0,0,1-.7-3.69c.13-.29.26-.59.38-.89a3.33,3.33,0,0,1,3.07-2h10.2A3.34,3.34,0,0,0,568.5,268V248.61A3.35,3.35,0,0,0,565.15,245.27Zm-50.82,31.9a19.36,19.36,0,1,1,19.35-19.36A19.36,19.36,0,0,1,514.33,277.17Z"/><rect class="cls-4" x="231.3" y="172.68" width="284.12" height="198.93" rx="12.39"/><g class="cls-5"><path class="cls-6" d="M231.4,360.71a12.39,12.39,0,0,0,12.29,10.9H503a12.38,12.38,0,0,0,12.29-10.9Z"/></g><rect class="cls-7" x="241.43" y="182.8" width="263.88" height="174.52" rx="12.39"/><rect class="cls-8" x="286.12" y="301.75" width="115.62" height="3.87"/><rect class="cls-8" x="405.89" y="301.75" width="22.79" height="3.87"/><rect class="cls-9" x="431.34" y="301.75" width="22.79" height="3.87"/><rect class="cls-8" x="405.89" y="316.51" width="22.79" height="3.87"/><rect class="cls-8" x="355.14" y="324.07" width="73.54" height="3.87"/><rect class="cls-9" x="431.34" y="316.51" width="22.79" height="3.87"/><rect class="cls-9" x="313.06" y="309.13" width="115.62" height="3.87"/><rect class="cls-8" x="431.16" y="309.13" width="22.79" height="3.87"/><rect class="cls-8" x="431.16" y="324.07" width="22.79" height="3.87"/><text class="cls-10" transform="translate(267.03 250.44)">P<tspan class="cls-11" x="28.97" y="0">R</tspan><tspan x="59.88" y="0">OJEC</tspan><tspan class="cls-12" x="166.31" y="0">T</tspan><tspan x="190.38" y="0">S</tspan></text><circle class="cls-9" cx="262.28" cy="198.02" r="4.38"/><circle class="cls-9" cx="276.88" cy="198.02" r="4.38"/><circle class="cls-9" cx="291.48" cy="198.02" r="4.38"/><line class="cls-13" x1="249.38" y1="207.76" x2="494.22" y2="207.76"/><path class="cls-3" d="M527.62,393.31H219.11a17,17,0,0,1-16-11.11L197.53,367H549.19l-5.62,15.17A17,17,0,0,1,527.62,393.31Z"/><g class="cls-5"><path class="cls-6" d="M202.74,381.1l.41,1.1a17,17,0,0,0,16,11.11H527.62a17,17,0,0,0,16-11.11l.41-1.1Z"/></g><rect class="cls-14" x="166.98" y="258.99" width="99.05" height="73.35" rx="22.43"/><polygon class="cls-7" points="240.37 296.45 200.34 275.42 200.34 318.01 240.37 296.45"/><rect class="cls-3" x="95.64" y="190.24" width="8.57" height="167.89" transform="translate(19.86 -6.44) rotate(4.1)"/><rect class="cls-3" x="196.69" y="83.53" width="35.82" height="5.21"/><polygon class="cls-3" points="111.38 190.29 207.45 76.84 201.18 72.06 101.06 190.29 111.38 190.29"/><rect class="cls-4" x="85.48" y="353.39" width="17.99" height="23.35"/><g class="cls-5"><rect class="cls-6" x="85.48" y="364.75" width="17.99" height="11.99"/></g><rect class="cls-4" x="76.96" y="371.22" width="78.26" height="22.09" rx="7.18"/><g class="cls-5"><path class="cls-6" d="M77,383.68v2.45a7.18,7.18,0,0,0,7.17,7.18H148a7.19,7.19,0,0,0,7.18-7.18v-2.45Z"/></g><path class="cls-7" d="M223.19,69.33h16.73a9.31,9.31,0,0,1,9.31,9.31V107.2a0,0,0,0,1,0,0H213.88a0,0,0,0,1,0,0V78.64a9.31,9.31,0,0,1,9.31-9.31Z"/><g class="cls-5"><rect class="cls-6" x="213.88" y="92.05" width="35.34" height="15.15"/></g><path class="cls-7" d="M233,96.47h0a39.6,39.6,0,0,1,39.6,39.6v15.31a0,0,0,0,1,0,0H193.37a0,0,0,0,1,0,0V136.07A39.6,39.6,0,0,1,233,96.47Z"/><g class="cls-5"><rect class="cls-6" x="193.37" y="138.75" width="79.21" height="12.62"/></g><rect class="cls-4" x="187.53" y="142.86" width="90.89" height="12.94"/><circle class="cls-4" cx="107.01" cy="188.28" r="11.09"/><path class="cls-7" d="M262.59,411.09c3.33,1,4.85,3.11,4.85,8.11v11.58c0,3.4,1.74,5.36,5.29,5.36H274V445h-4.2c-9.05,0-13.68-4.64-13.68-13v-13.1c0-2.32-1.23-3.41-3.18-3.41h-2.39v-8.83H253c1.95,0,3.18-1.08,3.18-3.4v-13.1c0-8.33,4.63-13,13.68-13H274V386h-1.3c-3.55,0-5.29,2-5.29,5.36V403C267.44,408,265.92,410.08,262.59,411.09Z"/><path class="cls-7" d="M273.24,424.41a7,7,0,0,1,14,0,7,7,0,1,1-14,0Zm19.32,0a7,7,0,0,1,14.05,0,7,7,0,1,1-14.05,0Zm19.4,0a7,7,0,0,1,14.05,0,7,7,0,1,1-14.05,0Z"/><path class="cls-7" d="M348.74,406.67v8.83h-2.39c-2,0-3.18,1.09-3.18,3.41V432c0,8.32-4.64,13-13.69,13h-4.19v-8.83h1.3c3.55,0,5.28-2,5.28-5.36V419.2c0-5,1.52-7.1,4.85-8.11-3.33-1-4.85-3.11-4.85-8.11V391.4c0-3.4-1.73-5.36-5.28-5.36h-1.3v-8.83h4.19c9,0,13.69,4.63,13.69,13v13.1c0,2.32,1.23,3.4,3.18,3.4Z"/><rect class="cls-14" x="457.4" y="327.66" width="80.25" height="113.17"/><rect class="cls-7" x="467.54" y="342.2" width="59.77" height="2.93"/><rect class="cls-7" x="467.54" y="347.69" width="39.71" height="2.93"/><rect class="cls-7" x="467.54" y="353.22" width="51.93" height="2.93"/><rect class="cls-7" x="467.54" y="358.66" width="48.28" height="2.93"/><rect class="cls-7" x="467.54" y="405.99" width="48.28" height="2.93"/><rect class="cls-7" x="467.54" y="411.66" width="35.07" height="2.93"/><rect class="cls-7" x="467.54" y="417.49" width="39.82" height="2.93"/><rect class="cls-15" x="327.01" y="70.07" width="171.72" height="28.33" rx="7.95"/><path class="cls-7" d="M490.79,70.07H448.16a8.68,8.68,0,0,0-8.68,8.68v11a8.69,8.69,0,0,0,8.68,8.69h42.63a8,8,0,0,0,7.95-8V78A8,8,0,0,0,490.79,70.07Z"/><rect class="cls-15" x="327.01" y="105.41" width="171.72" height="28.33" rx="7.95"/><path class="cls-4" d="M490.79,105.41H448.16a8.68,8.68,0,0,0-8.68,8.68v11a8.68,8.68,0,0,0,8.68,8.68h42.63a8,8,0,0,0,7.95-8V113.35A7.94,7.94,0,0,0,490.79,105.41Z"/><circle class="cls-14" cx="523.7" cy="149.58" r="67.29" transform="matrix(0.16, -0.99, 0.99, 0.16, 290.45, 641.75)"/><path class="cls-7" d="M484.58,150.86l12.28-17.06H509l-11.92,17.06,11.92,17H496.86Z"/><path class="cls-7" d="M532.72,107.34h12.1l-28.72,82H504Z"/><path class="cls-7" d="M538.47,167.84l11.92-17L538.47,133.8h12.18l12.28,17.06-12.28,17Z"/><path class="cls-7" d="M663.69,206.83h-54a17.5,17.5,0,0,0-17.5,17.5v7a17.51,17.51,0,0,0,17.5,17.5h23.88L646,271.16l13.71-22.33h4a17.5,17.5,0,0,0,17.5-17.5v-7A17.49,17.49,0,0,0,663.69,206.83Z"/><path class="cls-9" d="M611.22,228.05a7,7,0,0,1,14,0,7,7,0,1,1-14,0Z"/><path class="cls-9" d="M630.18,228.05a7,7,0,0,1,14.05,0,7,7,0,1,1-14.05,0Z"/><path class="cls-9" d="M649.15,228.05a7,7,0,0,1,14,0,7,7,0,1,1-14,0Z"/><rect class="cls-3" x="608.95" y="286.42" width="55.48" height="18.17"/><rect class="cls-16" x="608.95" y="292.33" width="55.48" height="12.25"/><polygon class="cls-7" points="657.39 393.31 614.3 393.31 606.7 305.01 666.69 305.01 657.39 393.31"/><g class="cls-5"><polygon class="cls-6" points="666.69 305.01 606.7 305.01 608.66 319.17 664.29 319.17 666.69 305.01"/></g><rect class="cls-4" x="598.04" y="294.66" width="77.31" height="18.17"/><circle class="cls-9" cx="636.69" cy="350.24" r="16.92" transform="translate(-46.82 596.94) rotate(-48.66)"/></g></g></svg>